HIERARCHY
ROOT Hips
{
	OFFSET	0.00	0.00	0.00
	CHANNELS 6 Xposition Yposition Zposition Zrotation Xrotation Yrotation
	JOINT LeftUpLeg
	{
		OFFSET	 0.126116	-0.014019	-0.065224
		CHANNELS 3 Zrotation Xrotation Yrotation
		JOINT LeftLeg
		{
			OFFSET	 0.000000	 0.000000	 0.569914
			CHANNELS 3 Zrotation Xrotation Yrotation
			JOINT LeftFoot
			{
				OFFSET	 0.000000	 0.000000	 0.544423
				CHANNELS 3 Zrotation Xrotation Yrotation
				JOINT LeftToeBase
				{
					OFFSET	 0.000000	 0.000000	 0.207117
					CHANNELS 3 Zrotation Xrotation Yrotation
					End Site
					{
						OFFSET	 0.000000	 0.000000	 0.207117
					}
				}
			}
		}
	}
	JOINT RightUpLeg
	{
		OFFSET	-0.124023	-0.008373	-0.065224
		CHANNELS 3 Zrotation Xrotation Yrotation
		JOINT RightLeg
		{
			OFFSET	 0.000000	 0.000000	 0.570047
			CHANNELS 3 Zrotation Xrotation Yrotation
			JOINT RightFoot
			{
				OFFSET	 0.000000	 0.000000	 0.544354
				CHANNELS 3 Zrotation Xrotation Yrotation
				JOINT RightToeBase
				{
					OFFSET	 0.000000	 0.000000	 0.207540
					CHANNELS 3 Zrotation Xrotation Yrotation
					End Site
					{
						OFFSET	 0.000000	 0.000000	 0.207540
					}
				}
			}
		}
	}
	JOINT Spine
	{
		OFFSET	 0.000184	-0.007763	 0.117403
		CHANNELS 3 Zrotation Xrotation Yrotation
		JOINT Spine1
		{
			OFFSET	 0.000000	 0.000000	 0.137269
			CHANNELS 3 Zrotation Xrotation Yrotation
			JOINT Spine2
			{
				OFFSET	 0.000000	 0.000000	 0.156879
				CHANNELS 3 Zrotation Xrotation Yrotation
				JOINT LeftShoulder
				{
					OFFSET	 0.080501	-0.002496	 0.160144
					CHANNELS 3 Zrotation Xrotation Yrotation
					JOINT LeftArm
					{
						OFFSET	 0.000000	 0.000000	 0.164363
						CHANNELS 3 Zrotation Xrotation Yrotation
						JOINT LeftForeArm
						{
							OFFSET	 0.000000	 0.000000	 0.364576
							CHANNELS 3 Zrotation Xrotation Yrotation
							JOINT LeftHand
							{
								OFFSET	 0.000000	 0.000000	 0.360812
								CHANNELS 3 Zrotation Xrotation Yrotation
								JOINT LeftHandIndex1
								{
									OFFSET	 0.000000	 0.000000	 0.086006
									CHANNELS 3 Zrotation Xrotation Yrotation
									JOINT LeftHandIndex2
									{
										OFFSET	 0.000000	 0.000000	 0.047236
										CHANNELS 3 Zrotation Xrotation Yrotation
										JOINT LeftHandIndex3
										{
											OFFSET	-0.004284	-0.000551	 0.038166
											CHANNELS 3 Zrotation Xrotation Yrotation
											End Site
											{
												OFFSET	-0.004284	-0.000551	 0.038166
											}
										}
									}
								}
							}
						}
					}
				}
				JOINT Neck
				{
					OFFSET	 0.000000	 0.000000	 0.176489
					CHANNELS 3 Zrotation Xrotation Yrotation
					JOINT Head
					{
						OFFSET	 0.000000	-0.001747	 0.077940
						CHANNELS 3 Zrotation Xrotation Yrotation
						End Site
						{
							OFFSET	 0.000000	-0.001747	 0.077940
						}
					}
				}
				JOINT RightShoulder
				{
					OFFSET	-0.080363	 0.000306	 0.159706
					CHANNELS 3 Zrotation Xrotation Yrotation
					JOINT RightArm
					{
						OFFSET	 0.000000	 0.000000	 0.164196
						CHANNELS 3 Zrotation Xrotation Yrotation
						JOINT RightForeArm
						{
							OFFSET	 0.000000	 0.000000	 0.365611
							CHANNELS 3 Zrotation Xrotation Yrotation
							JOINT RightHand
							{
								OFFSET	 0.000000	 0.000000	 0.360648
								CHANNELS 3 Zrotation Xrotation Yrotation
								JOINT RightHandIndex1
								{
									OFFSET	 0.000000	 0.000000	 0.069977
									CHANNELS 3 Zrotation Xrotation Yrotation
									JOINT RightHandIndex2
									{
										OFFSET	 0.000000	 0.000000	 0.052305
										CHANNELS 3 Zrotation Xrotation Yrotation
										JOINT RightHandIndex3
										{
											OFFSET	 0.009002	-0.000782	 0.042196
											CHANNELS 3 Zrotation Xrotation Yrotation
											End Site
											{
												OFFSET	 0.009002	-0.000782	 0.042196
											}
										}
									}
								}
							}
						}
					}
				}
			}
		}
	}
}
MOTION
Frames:    5
Frame Time: 0.03333334
-0.058532	-2.250008	 1.243867	 4.735161	-1.390868	-3.121145	 1.013066	-7.008416	-171.971900	 0.716078	-28.836630	 0.175254	 22.295580	 70.832210	-25.475470	-2.370178	 31.484170	-0.066967	-5.576486	-30.163400	-175.620900	 10.414060	-50.887540	 8.712233	 10.489710	 67.096240	-6.792797	 2.358531	 33.064330	 0.104717	-6.421978	 8.821536	 1.702626	-0.743121	 2.122661	 0.286315	-1.100260	-2.268150	-0.439977	-93.890690	 58.962830	 175.490200	 19.384030	 38.587950	-37.726370	-14.686190	 3.260894	-13.358670	 0.898025	-36.754170	-6.020721	-4.869164	 19.246190	-2.786505	-3.885894	 21.416950	 2.207180	-4.808260	 5.545473	 0.146969	-0.089673	-5.058670	 0.177116	-3.204064	 2.286650	 2.591290	 89.793910	 61.630440	-179.971800	-20.479230	 53.149600	 10.984740	 11.237320	 3.647219	 24.405960	-8.385497	-21.996960	-0.753564	 6.296571	 25.158420	-0.550191	 1.846187	 45.016530	-6.958044	 0.486947	 24.448430	 3.588244
-0.060662	-2.297536	 1.243557	 6.045359	-0.247820	-3.078195	-0.272091	-5.645956	-172.356000	 1.260984	-28.102480	 0.427861	 21.959100	 71.627300	-25.551530	-2.367780	 31.880600	-0.075960	-8.952089	-33.651200	-176.112700	 10.944490	-44.049580	 8.195174	 17.586130	 72.862810	-15.856220	 2.359216	 32.963910	 0.102386	-6.962043	 8.071553	 1.539534	-1.205497	 1.801109	 0.009828	-0.161507	-2.344446	 0.082319	-94.203090	 59.015870	 174.816800	 18.458620	 35.459140	-39.910520	-15.393060	 3.258710	-13.342660	 1.707056	-40.599100	-7.035514	-4.860592	 19.474150	-2.803278	-3.868639	 21.637360	 2.189654	-4.801792	 5.621716	 0.142512	-0.020842	-5.121566	 0.259435	-2.058419	 2.175230	 2.447442	 89.675690	 61.774950	 179.745100	-19.659420	 54.439060	 8.844569	 10.405360	 3.435673	 23.293260	-10.157580	-24.214020	-1.862290	 6.266633	 22.889810	-0.563303	 2.113182	 42.791550	-7.194965	 0.938888	 22.436770	 3.364559
-0.062560	-2.351777	 1.240221	 6.512414	 0.745928	-3.508610	-0.775435	-3.463067	-172.317400	 1.500188	-26.966540	 0.520401	 22.207230	 72.923210	-26.040700	-2.361959	 32.792480	-0.096861	-9.332559	-36.128740	-175.908200	 10.662590	-35.011530	 6.611105	 28.517830	 74.300590	-28.707480	 2.357106	 33.271880	 0.109555	-6.635516	 7.129818	 1.809392	-1.555317	 2.286522	-0.180693	 0.754468	-2.571486	 0.488642	-94.435360	 58.902420	 174.339400	 16.665010	 32.295130	-42.249490	-16.506140	 3.248129	-13.299960	 3.183228	-44.653400	-4.927460	-4.834846	 20.038280	-2.821690	-3.835973	 22.051160	 2.156471	-4.779527	 5.883523	 0.127109	 0.010274	-5.235621	 0.332156	-1.094876	 2.040413	 2.470499	 89.493840	 61.985220	 179.304200	-18.290230	 55.641840	 6.330964	 8.527395	 3.072342	 22.639940	-13.244250	-26.254020	-4.434104	 6.214720	 19.998960	-0.669820	 2.410349	 40.077610	-7.454768	 1.569636	 19.513060	 3.074985
-0.066169	-2.416098	 1.233676	 6.830379	 1.027955	-3.840741	-1.271607	-0.052048	-172.516100	 1.750112	-26.025090	 0.613218	 21.226750	 73.542750	-25.198040	-2.341287	 35.571550	-0.162699	-8.243364	-37.216560	-175.366100	 10.403100	-25.587180	 4.870410	 38.865450	 73.941870	-40.244150	 2.337375	 35.835630	 0.170820	-6.346228	 6.854479	 2.082868	-1.879584	 2.825038	-0.348151	 1.614260	-2.944044	 0.839797	-94.538590	 58.893800	 174.121500	 14.256480	 30.149850	-44.146510	-16.823090	 3.216034	-13.231310	 4.180047	-48.456620	-3.501457	-4.840312	 20.464910	-2.980010	-3.794482	 22.570480	 2.114331	-4.739814	 6.348115	 0.099524	 0.091821	-5.377901	 0.354090	-0.166735	 1.913181	 2.267157	 89.368920	 61.986210	 179.002700	-16.190890	 56.389400	 3.483089	 6.602086	 2.775193	 20.790960	-16.413730	-28.557500	-7.759164	 6.167334	 16.777770	-0.702053	 2.816412	 35.908390	-7.801795	 2.242592	 16.250240	 2.797238
-0.074341	-2.489084	 1.219824	 7.211757	 0.851948	-3.169823	-2.057364	 3.909713	-173.978900	 2.066352	-26.394090	 0.761965	 15.899220	 71.320000	-19.686630	-2.238738	 44.478530	-0.402951	-7.230198	-40.881190	-175.900200	 8.509108	-21.965130	 3.492481	 18.135280	 64.638700	-17.758250	 2.339617	 35.568770	 0.164306	-6.120729	 6.843843	 1.582886	-2.070145	 3.801607	-0.543265	 2.341162	-3.389006	 1.066488	-94.491580	 59.274380	 174.158500	 11.728930	 29.220910	-46.111150	-16.872190	 3.156860	-13.114530	 4.570538	-52.356780	-2.760819	-4.884185	 20.649870	-3.291403	-3.760162	 22.994690	 2.079486	-4.666679	 7.195640	 0.048282	 0.214221	-5.479080	 0.262902	 0.807194	 1.967000	 2.182303	 89.355000	 61.559670	 178.985100	-14.216870	 56.518160	-0.720219	 4.738490	 2.394411	 21.426240	-19.735970	-30.992210	-11.019250	 6.221662	 13.182990	-0.233692	 3.067026	 33.034360	-8.010451	 2.920999	 12.821990	 2.552316
